<?xml version="1.0" standalone="no"?>
<!DOCTYPE svg PUBLIC "-//W3C//DTD SVG 20010904//EN"
 "http://www.w3.org/TR/2001/REC-SVG-20010904/DTD/svg10.dtd">
<svg version="1.0" xmlns="http://www.w3.org/2000/svg"
 width="402.000000pt" height="402.000000pt" viewBox="0 0 402.000000 402.000000"
 preserveAspectRatio="xMidYMid meet">
<metadata>
Created by potrace 1.11, written by Peter Selinger 2001-2013
</metadata>
<g transform="translate(0.000000,402.000000) scale(0.100000,-0.100000)"
fill="#000000" stroke="none">
<path d="M0 2010 l0 -2000 2005 0 2005 0 0 2000 0 2000 -2005 0 -2005 0 0
-2000z m1305 788 c61 -31 129 -103 154 -161 48 -113 54 -280 17 -512 -13 -82
-22 -152 -19 -155 2 -3 67 -7 143 -8 l138 -4 7 34 c19 91 89 365 97 383 16 32
50 65 66 65 29 0 52 -32 52 -69 -1 -20 -14 -119 -29 -221 -16 -102 -27 -187
-24 -190 2 -3 36 -4 74 -4 62 1 69 -1 69 -18 0 -22 -43 -42 -112 -52 -27 -4
-48 -13 -48 -19 0 -12 -61 -396 -81 -513 -6 -36 -18 -72 -27 -80 -29 -29 -96
6 -128 68 -22 42 -17 124 17 285 17 81 34 170 39 197 l7 49 -140 -6 c-87 -4
-143 -11 -148 -18 -3 -6 -14 -48 -24 -93 -29 -132 -94 -363 -119 -421 -41 -91
-82 -94 -132 -9 -34 59 -31 80 47 342 33 112 59 205 57 208 -3 2 -35 7 -74 11
-77 9 -91 26 -55 62 17 17 34 21 90 21 l69 0 16 68 c40 179 63 437 46 522 -31
163 -146 262 -271 235 -52 -12 -149 -115 -193 -206 -58 -122 -79 -214 -80
-359 -1 -123 0 -127 32 -193 36 -72 70 -102 130 -113 67 -13 46 -47 -23 -38
-86 13 -118 26 -166 71 -71 66 -100 133 -106 241 -15 266 153 549 365 617 74
23 204 15 267 -17z m1433 -144 c84 -35 124 -96 123 -192 -1 -161 -86 -292
-233 -362 -66 -31 -91 -29 -103 11 -14 42 3 69 58 94 74 32 111 66 137 126 18
44 21 66 18 140 -3 76 -6 91 -27 113 -36 38 -73 34 -120 -13 -72 -72 -92 -165
-126 -586 -18 -223 -39 -371 -61 -438 -19 -58 -23 -54 116 -126 224 -116 439
-127 592 -30 65 42 136 121 160 179 29 70 42 64 35 -16 -6 -74 -48 -173 -94
-216 -95 -91 -234 -135 -393 -124 -171 11 -269 45 -423 149 l-58 39 -41 -47
c-124 -141 -318 -115 -318 43 0 110 83 177 190 153 38 -9 41 -8 55 20 23 44
42 146 75 409 35 276 42 314 76 426 53 169 152 262 282 264 23 0 59 -7 80 -16z"/>
<path d="M2080 1442 c-46 -23 -55 -68 -15 -78 32 -8 71 18 98 65 l19 31 -34 0
c-18 0 -49 -8 -68 -18z"/>
</g>
</svg>
