<svg xmlns="http://www.w3.org/2000/svg" viewBox="0 0 943.42 375.33"><defs><style>.cls-1{fill:#ff9303;}.cls-2{fill:#414141;}.cls-3{fill:#ff6a18;}.cls-4{fill:#bababa;}.cls-5{fill:none;stroke:#ff6a18;stroke-miterlimit:10;stroke-width:24px;}</style></defs><title>Logo</title><g id="Logo"><path class="cls-1" d="M889.22,115a104.16,104.16,0,0,1,3,46.25c-6,37.28-32.35,58.85-39.5,64.33v28.67c12-6.75,33.44-21.13,49-47.5a124.45,124.45,0,0,0,13.5-32.5,121,121,0,0,0,1.88-48.12,124.15,124.15,0,0,0-27.88-59.88l-9-8.67L864.78,77.08A70.29,70.29,0,0,1,889.22,115Z" transform="translate(-15.72 -11.28)"/><path class="cls-1" d="M706.22,117.78a99.17,99.17,0,0,0,36,107.83v28.67a121.4,121.4,0,0,1-64-87,127.74,127.74,0,0,1,6-63,126.05,126.05,0,0,1,22-38l15.13-3.12-3.25,22" transform="translate(-15.72 -11.28)"/><path class="cls-2" d="M558.39,365.28,696.72,225.61c8.71,9.64,26.26,28.43,53.1,39.09a141.1,141.1,0,0,0,50.56,9.91,108.55,108.55,0,0,0,34.67-4.67,110,110,0,0,0,44.67-26.67l22,24a162.63,162.63,0,0,1-40,26,160.76,160.76,0,0,1-69.33,14.67c-49.26-1.22-83.67-27-95.33-36.67L582.39,386.61Z" transform="translate(-15.72 -11.28)"/><path class="cls-3" d="M887.22,54.78V11.28c8,5.27,61,41.28,70.5,111,8.59,62.95-24.39,108.28-31,117l-22.5-20.5c5.19-8.59,32.47-55.59,15.68-110.4A129.42,129.42,0,0,0,887.22,54.78Z" transform="translate(-15.72 -11.28)"/><path class="cls-3" d="M706.22,117.78a96.38,96.38,0,0,1,183-2.75V66.28a110.5,110.5,0,0,0-91.5-42,114.27,114.27,0,0,0-91.5,42" transform="translate(-15.72 -11.28)"/><path class="cls-4" d="M708.72,11.28v41a131.93,131.93,0,0,0-28.87,44.15c-17.57,44.65-4.64,85.39-.13,97.84l-24,24.51c-5.22-9.72-30.76-59.68-12.5-120.5C659.1,45.37,697.89,18.32,708.72,11.28Z" transform="translate(-15.72 -11.28)"/><polyline class="cls-3" points="0 70.33 113 70.33 49.67 160.67 115.33 160.67 115.33 185 1.33 185 66.67 93.67 0 94"/><circle class="cls-5" cx="182.63" cy="126.12" r="46.37"/><circle class="cls-5" cx="308.89" cy="126.12" r="46.37"/><path class="cls-3" d="M587.6,98.74c-15.87-21.41-43.31-21-46.38-21A52.08,52.08,0,0,0,494.72,99a52.08,52.08,0,0,0-46.5-21.25c-3.07-.09-30.51-.45-46.38,21a51.13,51.13,0,0,0-9.62,26v71h24.42V130.11a28.5,28.5,0,0,1,9.58-21.6q.52-.45,1.08-.9c7-5.56,14.91-6.36,18.33-6.67,2.48-.22,18.33-1.66,28.56,8.35a27.55,27.55,0,0,1,8.27,20.48v66H507v-66a27.55,27.55,0,0,1,8.27-20.48c10.24-10,26.08-8.58,28.56-8.35,3.43.31,11.29,1.1,18.33,6.67q.56.44,1.08.9a28.5,28.5,0,0,1,9.58,21.6v65.67h24.42v-71A51.13,51.13,0,0,0,587.6,98.74Z" transform="translate(-15.72 -11.28)"/><path class="cls-4" d="M370.7,265.12h-6.77V215.69H345.38v-6.1h43.87v6.1H370.7Z" transform="translate(-15.72 -11.28)"/><path class="cls-4" d="M410.46,260.55a30.29,30.29,0,0,0,5.83-.52,35,35,0,0,0,5.25-1.47v5.35a21,21,0,0,1-5.23,1.64,35.19,35.19,0,0,1-6.68.6,28.39,28.39,0,0,1-7.95-1.08,16.49,16.49,0,0,1-6.43-3.49A16.2,16.2,0,0,1,391,255.3a25.42,25.42,0,0,1-1.54-9.36,26.58,26.58,0,0,1,1.49-9.36,19.72,19.72,0,0,1,4-6.62,16.23,16.23,0,0,1,5.71-4,17.59,17.59,0,0,1,6.75-1.33,17.18,17.18,0,0,1,6.19,1.1,12.67,12.67,0,0,1,5,3.47,16.93,16.93,0,0,1,3.33,6.1,29,29,0,0,1,1.22,9v.85q0,.35,0,1.6H395.85a16.11,16.11,0,0,0,1.14,6.41,11.26,11.26,0,0,0,3.11,4.27,12.36,12.36,0,0,0,4.63,2.39A21.08,21.08,0,0,0,410.46,260.55Zm-3.39-30.38a9.85,9.85,0,0,0-4.14.87,10.71,10.71,0,0,0-3.34,2.37,12,12,0,0,0-2.31,3.51,13.76,13.76,0,0,0-1.09,4.3h20.17a14.92,14.92,0,0,0-.61-4.34,10.53,10.53,0,0,0-1.79-3.51,8.35,8.35,0,0,0-2.9-2.35A8.92,8.92,0,0,0,407.07,230.17Z" transform="translate(-15.72 -11.28)"/><path class="cls-4" d="M438.64,236.19a4.71,4.71,0,0,0,.69,2.66,5.22,5.22,0,0,0,1.85,1.68,11.94,11.94,0,0,0,2.68,1.06q1.52.42,3.15.75,2.23.5,4.22,1.1a12.53,12.53,0,0,1,3.67,1.8,8.76,8.76,0,0,1,2.72,3.26,11.87,11.87,0,0,1,1,5.33,11.6,11.6,0,0,1-1.16,5.29,10.74,10.74,0,0,1-3.28,3.86,15.3,15.3,0,0,1-5.06,2.37,24.43,24.43,0,0,1-6.47.81,30.88,30.88,0,0,1-3.92-.23,25.33,25.33,0,0,1-3.11-.58,21,21,0,0,1-2.3-.73,15.07,15.07,0,0,1-1.58-.71v-5.4a34.09,34.09,0,0,0,4.85,1.58,22.54,22.54,0,0,0,5.3.58,18.71,18.71,0,0,0,4.12-.41,10.45,10.45,0,0,0,3.16-1.22,5.8,5.8,0,0,0,2-2,5.54,5.54,0,0,0,.71-2.84,5.23,5.23,0,0,0-.65-2.74,5.46,5.46,0,0,0-1.75-1.78,10.61,10.61,0,0,0-2.55-1.16q-1.45-.46-3-.83-2.08-.46-4.22-1.08a14.9,14.9,0,0,1-3.89-1.74,8.45,8.45,0,0,1-2.83-3.05,10.09,10.09,0,0,1-1.08-5,12.12,12.12,0,0,1,1.12-5.4,10.71,10.71,0,0,1,3-3.78,13.16,13.16,0,0,1,4.44-2.24,18.82,18.82,0,0,1,5.35-.75,28,28,0,0,1,6.08.62,30.18,30.18,0,0,1,5.08,1.58v5.48a37.74,37.74,0,0,0-4.92-1.56,23.39,23.39,0,0,0-5.12-.64,13.87,13.87,0,0,0-3.81.46,7.41,7.41,0,0,0-2.59,1.27,4.85,4.85,0,0,0-1.48,1.91A6.16,6.16,0,0,0,438.64,236.19Z" transform="translate(-15.72 -11.28)"/><path class="cls-4" d="M489.2,265.2a13.4,13.4,0,0,1-2.53.62,27.42,27.42,0,0,1-4.07.33,17,17,0,0,1-5.4-.77,10.15,10.15,0,0,1-3.8-2.2,8.93,8.93,0,0,1-2.26-3.47,13,13,0,0,1-.75-4.52v-24h-7.6v-5.52h7.6V214.9h6.43v10.79h11.79v5.52H476.83v23a7.82,7.82,0,0,0,.39,2.53,5.13,5.13,0,0,0,1.25,2,5.78,5.78,0,0,0,2.18,1.33,9.48,9.48,0,0,0,3.2.48,18.81,18.81,0,0,0,2.72-.21,21.41,21.41,0,0,0,2.64-.54Z" transform="translate(-15.72 -11.28)"/><path class="cls-4" d="M498.16,216.52v-7.18h6.43v7.18Zm.17,48.6V225.69h6.43v39.43Z" transform="translate(-15.72 -11.28)"/><path class="cls-4" d="M523.85,231.17H524a20.8,20.8,0,0,1,2.39-2.55,15.53,15.53,0,0,1,2.93-2.08,15.16,15.16,0,0,1,3.55-1.39,17.76,17.76,0,0,1,9.28.25,10.44,10.44,0,0,1,4.11,2.41,11.54,11.54,0,0,1,2.76,4.34,18.62,18.62,0,0,1,1,6.58v26.4h-6.43V239.76q0-5.1-2-7.35a7.25,7.25,0,0,0-5.75-2.24,12.45,12.45,0,0,0-6.43,1.85,17.14,17.14,0,0,0-5.35,5.08v28h-6.43V225.69h5Z" transform="translate(-15.72 -11.28)"/><path class="cls-4" d="M577.72,224.65a15.36,15.36,0,0,1,4.48.66,12.92,12.92,0,0,1,3.28,1.56,11.77,11.77,0,0,1,2.18,1.85,8.66,8.66,0,0,1,1.1,1.45h.17l1.33-4.48h4.86v41.75a19.54,19.54,0,0,1-1.49,7.95,15.15,15.15,0,0,1-4.19,5.62,17.75,17.75,0,0,1-6.5,3.34,30.18,30.18,0,0,1-8.41,1.1,32.22,32.22,0,0,1-7-.68,18.8,18.8,0,0,1-4.81-1.64V277.7a28.53,28.53,0,0,0,2.74,1q1.33.39,2.74.66a27.86,27.86,0,0,0,2.88.39q1.47.12,3.26.13,6.93,0,10.63-3.24t3.69-9.88v-5.27h-.12a13.91,13.91,0,0,1-4.92,3.51,16.35,16.35,0,0,1-6.41,1.18,18.64,18.64,0,0,1-3.57-.37,16.48,16.48,0,0,1-7.47-3.63,14.53,14.53,0,0,1-3.07-3.69,20.5,20.5,0,0,1-2.14-5.25,27.32,27.32,0,0,1-.81-7,27.62,27.62,0,0,1,1.49-9.57,19.94,19.94,0,0,1,3.94-6.7,15.8,15.8,0,0,1,5.6-4A16.87,16.87,0,0,1,577.72,224.65Zm-10.83,21a21.67,21.67,0,0,0,1.12,7.59,12.21,12.21,0,0,0,2.84,4.59,9.21,9.21,0,0,0,3.76,2.24,13.59,13.59,0,0,0,3.86.6,13.24,13.24,0,0,0,5.6-1.2,15,15,0,0,0,4.61-3.28V235.57a14.7,14.7,0,0,0-1.49-1.7A13.14,13.14,0,0,0,585,232.1a13.59,13.59,0,0,0-2.88-1.37,11.58,11.58,0,0,0-8.57.58,10.45,10.45,0,0,0-3.65,3.17,14.51,14.51,0,0,0-2.22,4.88A24.72,24.72,0,0,0,566.89,245.65Z" transform="translate(-15.72 -11.28)"/></g></svg>